<?xml version="1.0" encoding="UTF-8"?>
<svg version="1.1" xmlns="http://www.w3.org/2000/svg" width="512" height="512">
<path d="M0 0 C1.01790619 0.00215515 2.03581238 0.0043103 3.08456421 0.00653076 C17.69363523 0.05620146 32.02575853 0.30709809 46.375 3.3125 C47.34985352 3.51117676 48.32470703 3.70985352 49.32910156 3.91455078 C97.7109774 14.03517194 141.69928269 35.9516877 177.375 70.3125 C178.3640332 71.26068604 178.3640332 71.26068604 179.37304688 72.22802734 C188.86130305 81.37247479 197.6012044 90.66984009 205.375 101.3125 C206.23306152 102.46355017 207.09113451 103.61459177 207.94921875 104.765625 C213.98736829 112.95680614 219.34595521 121.47054105 224.375 130.3125 C224.73948242 130.94430176 225.10396484 131.57610352 225.47949219 132.22705078 C247.08534998 169.97532572 256.85198095 212.74189997 256.6875 255.9375 C256.68534485 256.95540619 256.6831897 257.97331238 256.68096924 259.02206421 C256.63129854 273.63113523 256.38040191 287.96325853 253.375 302.3125 C253.07698486 303.77478027 253.07698486 303.77478027 252.77294922 305.26660156 C242.65232806 353.6484774 220.7358123 397.63678269 186.375 433.3125 C185.74287598 433.97185547 185.11075195 434.63121094 184.45947266 435.31054688 C175.31502521 444.79880305 166.01765991 453.5387044 155.375 461.3125 C154.22394983 462.17056152 153.07290823 463.02863451 151.921875 463.88671875 C143.73224019 469.92427396 135.22961724 475.30707302 126.375 480.3125 C125.66778809 480.7146875 124.96057617 481.116875 124.23193359 481.53125 C101.09654164 494.5566741 75.92537591 503.30551461 49.9375 508.625 C49.21860596 508.77235596 48.49971191 508.91971191 47.7590332 509.0715332 C33.08339502 511.86090125 18.55831162 512.66142619 3.64770508 512.62817383 C0.70811513 512.6250221 -2.2304558 512.64854926 -5.16992188 512.67382812 C-18.54306192 512.71848737 -31.43916711 511.51301542 -44.625 509.3125 C-46.33055054 509.03031616 -46.33055054 509.03031616 -48.07055664 508.74243164 C-91.33802759 500.97044532 -132.38793216 480.98345309 -165.625 452.3125 C-166.37007813 451.67828125 -167.11515625 451.0440625 -167.8828125 450.390625 C-181.38779833 438.57948485 -194.05918743 425.82889772 -204.625 411.3125 C-205.48149066 410.16255169 -206.33826433 409.01281411 -207.1953125 407.86328125 C-213.23534209 399.67315742 -218.61867614 391.16870382 -223.625 382.3125 C-224.0271875 381.60528809 -224.429375 380.89807617 -224.84375 380.16943359 C-237.8691741 357.03404164 -246.61801461 331.86287591 -251.9375 305.875 C-252.08485596 305.15610596 -252.23221191 304.43721191 -252.3840332 303.6965332 C-255.35789088 288.05024391 -255.99800362 272.57681954 -255.9375 256.6875 C-255.93534485 255.66959381 -255.9331897 254.65168762 -255.93096924 253.60293579 C-255.88129854 238.99386477 -255.63040191 224.66174147 -252.625 210.3125 C-252.42632324 209.33764648 -252.22764648 208.36279297 -252.02294922 207.35839844 C-241.90232806 158.9765226 -219.9858123 114.98821731 -185.625 79.3125 C-184.99287598 78.65314453 -184.36075195 77.99378906 -183.70947266 77.31445312 C-174.56502521 67.82619695 -165.26765991 59.0862956 -154.625 51.3125 C-153.47394983 50.45443848 -152.32290823 49.59636549 -151.171875 48.73828125 C-142.98224019 42.70072604 -134.47961724 37.31792698 -125.625 32.3125 C-124.91778809 31.9103125 -124.21057617 31.508125 -123.48193359 31.09375 C-100.34654164 18.0683259 -75.17537591 9.31948539 -49.1875 4 C-48.46860596 3.85264404 -47.74971191 3.70528809 -47.0090332 3.5534668 C-31.36274391 0.57960912 -15.88931954 -0.06050362 0 0 Z M-158.625 122.3125 C-161.12483249 127.27054707 -162.00154874 130.8843847 -162.01268005 136.51634216 C-162.01806559 137.20679896 -162.02345113 137.89725576 -162.02899987 138.60863549 C-162.0432167 140.90390802 -162.03619165 143.1985987 -162.02905273 145.49389648 C-162.0347596 147.146957 -162.04172509 148.80001357 -162.04985046 150.45306396 C-162.06776188 154.93037358 -162.06661732 159.407487 -162.06090808 163.88482165 C-162.05781336 167.62733746 -162.06391182 171.36981574 -162.06994683 175.1123262 C-162.08398377 183.94348698 -162.08243763 192.774551 -162.07104492 201.60571289 C-162.0595638 210.70633544 -162.07364115 219.80666329 -162.1004414 228.90724701 C-162.12261555 236.73082406 -162.12923193 244.55430872 -162.12336498 252.37791497 C-162.1199984 257.04618359 -162.12239068 261.71426331 -162.13961601 266.38250542 C-162.1551105 270.77310399 -162.15110199 275.16326676 -162.13231087 279.55384827 C-162.12863193 281.16143779 -162.13171316 282.76905979 -162.14219666 284.37661934 C-162.26049341 295.94061683 -162.26049341 295.94061683 -157.625 306.3125 C-152.672237 311.265263 -147.64030345 312.42690507 -140.7890625 312.5078125 C-138.60928903 312.49460175 -136.42955801 312.47087368 -134.25 312.4375 C-132.57357422 312.42396484 -132.57357422 312.42396484 -130.86328125 312.41015625 C-128.11696538 312.38668346 -125.37109528 312.35384728 -122.625 312.3125 C-122.64594727 313.55862061 -122.66689453 314.80474121 -122.68847656 316.08862305 C-122.76097351 320.71969067 -122.80683513 325.3507083 -122.84472656 329.98217773 C-122.86481991 331.98519328 -122.89209965 333.98815032 -122.92675781 335.9909668 C-122.97537611 338.87303108 -122.99799152 341.75431866 -123.015625 344.63671875 C-123.03627014 345.52961105 -123.05691528 346.42250336 -123.07818604 347.342453 C-123.07969285 351.5343356 -122.99275671 353.72347475 -120.72558594 357.35473633 C-118.11162788 359.80281136 -118.11162788 359.80281136 -114.72460938 360.3671875 C-108.49941351 359.87132774 -105.08439054 357.92217902 -100.125 354.3125 C-89.55064895 347.25801833 -77.93108471 347.90600606 -65.625 348.3125 C-65.64071045 349.49279785 -65.6564209 350.6730957 -65.67260742 351.88916016 C-65.72705894 356.28362152 -65.76140538 360.67805326 -65.78979492 365.07275391 C-65.80484691 366.97189353 -65.82529316 368.87099859 -65.85131836 370.77001953 C-65.88785992 373.50562081 -65.90476238 376.240761 -65.91796875 378.9765625 C-65.93345261 379.82054596 -65.94893646 380.66452942 -65.96488953 381.53408813 C-65.96630555 386.53580209 -65.45465808 390.00406931 -62.625 394.3125 C-59.55849627 396.35683582 -57.75476839 396.92262445 -54.09667969 396.81689453 C-48.45446724 395.66549085 -43.62355101 392.19365267 -38.75 389.25 C-37.50769774 388.51722183 -36.26435125 387.78621139 -35.02001953 387.05688477 C-32.4622536 385.55509476 -29.90984813 384.04476843 -27.36132812 382.52734375 C-21.77605314 379.20742002 -16.13474557 375.98495307 -10.5 372.75 C-8.38238982 371.52807596 -6.26520392 370.30541636 -4.1484375 369.08203125 C-3.09237305 368.47182129 -2.03630859 367.86161133 -0.94824219 367.23291016 C0.14842773 366.5991748 1.24509766 365.96543945 2.375 365.3125 C6.62409268 362.8573109 10.87352153 360.40270543 15.12347412 357.94900513 C16.84186886 356.95663321 18.55985452 355.96355303 20.27783203 354.97045898 C21.31020996 354.37434814 22.34258789 353.7782373 23.40625 353.1640625 C24.77620117 352.37249756 24.77620117 352.37249756 26.17382812 351.56494141 C29.48368871 349.68166891 31.28579847 349.18568115 35.09283447 349.17446899 C36.08819717 349.16901566 37.08355988 349.16356232 38.10908508 349.15794373 C39.20520615 349.1569014 40.30132721 349.15585907 41.43066406 349.15478516 C42.58199326 349.14970444 43.73332245 349.14462372 44.91954041 349.13938904 C47.42681358 349.12866685 49.93409644 349.12005396 52.44138336 349.11326981 C56.40861691 349.10150916 60.37577148 349.08234601 64.34295654 349.06015015 C75.62524495 348.99822381 86.90752896 348.9442482 98.18994141 348.91113281 C104.41900599 348.89276933 110.64792817 348.86381007 116.87688804 348.8231281 C120.17245292 348.80208325 123.46779955 348.78829175 126.76343536 348.78432083 C130.4430886 348.77941849 134.12221201 348.75627591 137.80175781 348.72900391 C139.43379402 348.73351311 139.43379402 348.73351311 141.09880066 348.7381134 C147.5498067 348.66702465 152.29649006 348.15221567 157.23828125 343.59375 C157.71652344 343.0059375 158.19476563 342.418125 158.6875 341.8125 C159.17863281 341.2246875 159.66976563 340.636875 160.17578125 340.03125 C162.74190319 336.35342051 162.50505899 332.87715849 162.51544189 328.53825378 C162.51841302 327.84572 162.52138414 327.15318622 162.5244453 326.43966657 C162.53313311 324.11365551 162.53464061 321.78769592 162.53613281 319.46166992 C162.54076093 317.79610585 162.54578558 316.13054285 162.55117798 314.46498108 C162.5643046 309.93597509 162.57074745 305.40698392 162.57518864 300.87796187 C162.57811893 298.0488253 162.58222366 295.21969278 162.58669281 292.39055824 C162.60036842 283.54003359 162.61003477 274.6895182 162.6138947 265.83898371 C162.61837578 255.62013394 162.63592575 245.40141789 162.6648953 235.18260878 C162.68650698 227.28527718 162.69659871 219.38798321 162.69793582 211.49062234 C162.69898421 206.7731931 162.70489935 202.05588957 162.72275543 197.33849144 C162.73922724 192.90043119 162.74139597 188.46259125 162.73261642 184.02451134 C162.73184557 182.3967276 162.73619514 180.76893207 162.74607468 179.14117813 C162.75878444 176.91642225 162.75292327 174.69244783 162.74249268 172.46769714 C162.74469252 170.60138028 162.74469252 170.60138028 162.7469368 168.69736004 C162.15454564 163.30622593 160.06603284 159.40980961 155.875 156 C155.2871875 155.50886719 154.699375 155.01773438 154.09375 154.51171875 C151.08350175 152.41138645 148.45586694 152.18902418 144.90356445 152.19897461 C144.00285721 152.19905014 143.10214996 152.19912567 142.17414856 152.19920349 C140.72089424 152.20694542 140.72089424 152.20694542 139.23828125 152.21484375 C138.24370407 152.2162587 137.24912689 152.21767365 136.22441101 152.21913147 C133.04541018 152.22473239 129.86647957 152.23728504 126.6875 152.25 C124.53320414 152.25501488 122.37890718 152.25957781 120.22460938 152.26367188 C114.94138226 152.27470212 109.65819615 152.29144114 104.375 152.3125 C104.4064209 151.22364502 104.4064209 151.22364502 104.43847656 150.11279297 C104.5219365 146.80450445 104.57375539 143.49643789 104.625 140.1875 C104.67527344 138.47433594 104.67527344 138.47433594 104.7265625 136.7265625 C104.80170719 130.26411881 104.81192618 126.18090707 100.375 121.3125 C94.10042378 115.20750692 87.03043089 115.01623651 78.74819946 115.05180359 C77.32155159 115.04606527 77.32155159 115.04606527 75.86608255 115.04021102 C72.68882253 115.02991742 69.51174446 115.03386628 66.33447266 115.0378418 C64.0525038 115.03349331 61.7705364 115.0283097 59.48857117 115.02235413 C53.29641364 115.00896752 47.10431717 115.0083851 40.912148 115.01091743 C35.740672 115.01198738 30.56920835 115.00710312 25.397735 115.002312 C12.4986652 114.99058378 -0.40036565 114.99144123 -13.29943712 114.99786881 C-24.48973733 115.00303687 -35.67995047 114.99178418 -46.87023346 114.97277059 C-58.37290608 114.95337674 -69.87552722 114.94543011 -81.37821734 114.94889385 C-87.83108792 114.95070628 -94.28387874 114.94807441 -100.7367363 114.93417931 C-106.80573256 114.92159971 -112.87455461 114.92354651 -118.9435482 114.93659019 C-121.16832857 114.93895523 -123.3931212 114.93622393 -125.6178875 114.92796707 C-128.66020386 114.91749197 -131.70193652 114.92560676 -134.74423218 114.9382782 C-135.61983272 114.93090391 -136.49543326 114.92352963 -137.39756715 114.91593188 C-145.16811072 114.98378994 -153.09320551 116.45530583 -158.625 122.3125 Z " fill="#3880B9" transform="translate(255.625,-0.3125)"/>
<path d="M0 0 C75.24 0 150.48 0 228 0 C228 51.81 228 103.62 228 157 C170.75 157.125 170.75 157.125 152.72949219 157.11767578 C147.35950364 157.14423785 147.35950364 157.14423785 141.98956299 157.17868042 C139.61345133 157.19015973 137.23726493 157.19001004 134.86114502 157.1803894 C116.43166172 156.72438245 116.43166172 156.72438245 100 164 C98.1714695 165.05332862 96.33617023 166.09505639 94.4921875 167.12109375 C92.61764468 168.22291794 90.7453173 169.32851826 88.875 170.4375 C86.78946396 171.66474498 84.70351067 172.89128112 82.6171875 174.1171875 C81.54178711 174.74979492 80.46638672 175.38240234 79.35839844 176.03417969 C75.89572666 178.06103584 72.42330817 180.06991917 68.9453125 182.0703125 C68.36288788 182.40537308 67.78046326 182.74043365 67.1803894 183.08564758 C64.36465908 184.70472566 61.54777288 186.32176923 58.72998047 187.93725586 C53.60317348 190.88523035 48.53612378 193.85826548 43.62109375 197.15014648 C42 198 42 198 39 198 C38.9906543 196.99622314 38.98130859 195.99244629 38.97167969 194.95825195 C38.93169769 191.2211529 38.86591744 187.48487002 38.79248047 183.74829102 C38.76431814 182.13348911 38.74308 180.51855057 38.72900391 178.90356445 C38.70750742 176.57692763 38.66082789 174.25192523 38.609375 171.92578125 C38.60814636 171.20787918 38.60691772 170.48997711 38.60565186 169.75032043 C38.50330937 166.21932158 38.06375638 164.10457474 36.21191406 161.06713867 C28.00481761 153.39721752 4.49438069 157.14981269 0 157 C0 105.19 0 53.38 0 0 Z M30 30 C28.79899505 33.60301485 28.64761862 35.2025053 30.1875 38.6875 C32.07831874 41.09992391 33.35356729 42.45766373 36 44 C38.65171754 44.29502751 41.06789803 44.42049215 43.71850586 44.40405273 C44.87776329 44.41434761 44.87776329 44.41434761 46.06044006 44.42485046 C48.61209549 44.44313374 51.16313695 44.43927884 53.71484375 44.43359375 C55.49077047 44.43815494 57.26669542 44.44346032 59.0426178 44.44947815 C62.76408052 44.45841232 66.48532869 44.45598281 70.20678711 44.44604492 C74.97296337 44.43455673 79.7383986 44.4547626 84.5044775 44.48396206 C88.17196854 44.50231959 91.83928187 44.50203248 95.50680733 44.49632454 C97.2638611 44.49617126 99.02092687 44.50222117 100.77793694 44.51461601 C103.23646216 44.52951559 105.6936169 44.51885758 108.15209961 44.50170898 C108.87589813 44.51137695 109.59969666 44.52104492 110.34542847 44.53100586 C115.1635898 44.46072894 117.61705054 43.41827597 121 40 C122.58643982 36.82712035 122.96799489 33.37885009 122 30 C118.18566115 26.0975714 115.83144989 24.43932772 110.1686554 24.32235718 C109.07668098 24.33753891 109.07668098 24.33753891 107.96264648 24.35302734 C107.17976257 24.34426575 106.39687866 24.33550415 105.590271 24.32647705 C103.016639 24.30456843 100.4447415 24.31900267 97.87109375 24.3359375 C96.07560396 24.33256722 94.2801164 24.32771283 92.4846344 24.32144165 C88.72789719 24.31408223 84.97175569 24.3247468 81.21508789 24.34814453 C76.40392703 24.3766527 71.59415953 24.36021007 66.78304958 24.33028221 C63.07775907 24.31220142 59.37279816 24.31797041 55.66749763 24.33092117 C53.89370622 24.33425198 52.1198847 24.33017954 50.34612846 24.31852341 C47.86593382 24.30579895 45.3879865 24.32521001 42.90795898 24.35302734 C42.17795181 24.34290619 41.44794464 24.33278503 40.69581604 24.32235718 C35.43538993 24.43146716 33.20429605 25.89896441 30 30 Z M30 74 C28.62406509 77.80405533 28.79778218 79.44656175 30.1875 83.25 C32.10640861 86.16144754 32.85086168 86.78450237 36 88 C38.329922 88.30612289 38.329922 88.30612289 40.85118103 88.27415466 C41.82549576 88.28412979 42.79981049 88.29410492 43.8036499 88.30438232 C45.39732391 88.30537933 45.39732391 88.30537933 47.02319336 88.30639648 C48.14716019 88.31472 49.27112701 88.32304352 50.42915344 88.33161926 C54.14941863 88.35574081 57.86950863 88.36449344 61.58984375 88.37109375 C64.17289789 88.38005728 66.75595148 88.38917907 69.33900452 88.39845276 C74.75523492 88.41495039 80.17139463 88.42267759 85.58764648 88.42553711 C91.84420584 88.42917389 98.1002751 88.45908212 104.35668463 88.50094169 C110.38058542 88.53982989 116.4042145 88.55112986 122.42825508 88.55226326 C124.98915836 88.55647511 127.55006171 88.56894771 130.11088371 88.58978081 C133.69016316 88.616585 137.26808412 88.61190147 140.84741211 88.59936523 C142.43804977 88.62161667 142.43804977 88.62161667 144.06082153 88.64431763 C150.02305331 88.58881359 150.02305331 88.58881359 155.13453674 85.68128967 C157.48110373 82.3084943 158 80.10109903 158 76 C156.77923316 73.10871011 155.86510897 71.53426841 153.18712425 69.88041592 C150.69921219 68.87891937 148.87102437 68.74072968 146.19351196 68.72584534 C145.22905655 68.71587021 144.26460114 68.70589508 143.2709198 68.69561768 C142.21939224 68.694953 141.16786469 68.69428833 140.08447266 68.69360352 C138.97186569 68.68528 137.85925873 68.67695648 136.7129364 68.66838074 C133.02994298 68.64425823 129.34712657 68.63550605 125.6640625 68.62890625 C123.10582424 68.61994215 120.54758653 68.61082034 117.98934937 68.60154724 C112.62439368 68.5850489 107.25950442 68.57732243 101.89453125 68.57446289 C95.70047351 68.57082797 89.50691137 68.54093356 83.31300509 68.49905831 C77.34681184 68.46014167 71.3807671 68.44886954 65.41444016 68.44773674 C62.87948289 68.44352797 60.34452545 68.43106759 57.80965042 68.41021919 C54.26409939 68.38337832 50.719917 68.38810976 47.17431641 68.40063477 C46.12683731 68.38580048 45.07935822 68.37096619 44.00013733 68.35568237 C37.55993536 68.42050058 34.36029282 69.12759263 30 74 Z M30.125 118.3125 C28.66754542 121.79419705 28.80904425 123.42713275 30 127 C32.56112949 130.15449725 34.04980331 131.80616571 38.08443451 132.6292057 C39.82656094 132.6320334 39.82656094 132.6320334 41.60388184 132.63491821 C42.25391096 132.64271817 42.90394008 132.65051812 43.57366705 132.65855443 C45.74435529 132.67844411 47.91328423 132.66272462 50.08398438 132.64697266 C51.64310222 132.65375024 53.20221207 132.66265416 54.76130676 132.67352295 C58.99075023 132.69630661 63.2195835 132.68748409 67.44903755 132.67162752 C71.87632001 132.65896358 76.30355043 132.67071 80.73083496 132.67855835 C88.16554133 132.68765349 95.59999931 132.67567063 103.03466797 132.65185547 C111.62871058 132.62464434 120.2221601 132.63345861 128.81618834 132.6609875 C136.19640029 132.6836815 143.57643376 132.68687726 150.95666933 132.67379415 C155.36388654 132.6660012 159.77082502 132.66495364 164.17802429 132.68147659 C168.32166476 132.69592647 172.46454103 132.68589095 176.60809898 132.65700531 C178.12824421 132.65039715 179.64845381 132.65228769 181.16857338 132.66331863 C183.24528793 132.67699855 185.31955911 132.65983566 187.39611816 132.63491821 C188.55753578 132.63303308 189.7189534 132.63114796 190.91556549 132.6292057 C194.93080334 131.81012183 196.43507571 130.11973127 199 127 C199.89697604 124.21409796 199.73076056 121.82598809 199 119 C196.82425584 116.30894802 195.08934144 114.54467072 192 113 C189.97152734 112.89950412 187.93969075 112.8648824 185.90873718 112.85955811 C184.60901978 112.85384796 183.30930237 112.84813782 181.97019958 112.84225464 C180.52139292 112.84100921 179.07258614 112.83988413 177.6237793 112.83886719 C176.10452147 112.83424005 174.58526482 112.82921554 173.06600952 112.82382202 C168.93162701 112.81068526 164.79726076 112.8042505 160.66286063 112.79981136 C158.08081388 112.79688248 155.49877158 112.79277801 152.91672707 112.78830719 C144.84094217 112.77462843 136.76516745 112.76496383 128.68937176 112.7611053 C119.36192439 112.75662451 110.03462355 112.73907728 100.70722073 112.7101047 C93.50121404 112.68849739 86.2952486 112.67840151 79.08920985 112.67706418 C74.78371192 112.6760154 70.47835167 112.67009221 66.1728878 112.65224457 C62.1222437 112.63578042 58.071841 112.63360024 54.02117538 112.64238358 C52.53487693 112.64315486 51.04856559 112.63879912 49.56229973 112.62892532 C47.53231041 112.61623096 45.50222436 112.62386519 43.47221375 112.63250732 C42.33639705 112.63104076 41.20058035 112.6295742 40.03034496 112.6280632 C35.54360401 113.17875432 32.9472835 114.83168368 30.125 118.3125 Z " fill="#2D89BE" transform="translate(113,135)"/>
<path d="M0 0 C12.87 0 25.74 0 39 0 C39 52.14 39 104.28 39 158 C-18.75 157.8125 -18.75 157.8125 -36.86621094 157.66723633 C-42.30791989 157.67709141 -42.30791989 157.67709141 -47.74957275 157.70146179 C-50.14041314 157.70528287 -52.53135386 157.68785575 -54.92193604 157.6525116 C-71.50678036 157.42718512 -83.19907526 159.27751923 -97.0639143 168.69789505 C-99.72761128 170.4893514 -102.48824279 172.04246614 -105.2890625 173.609375 C-107.06910674 174.65387046 -108.84777186 175.70072005 -110.625 176.75 C-112.62860565 177.92499191 -114.63252451 179.09944984 -116.63671875 180.2734375 C-117.66071777 180.87381836 -118.6847168 181.47419922 -119.73974609 182.09277344 C-125.04346071 185.19541074 -130.35750385 188.28006416 -135.67669678 191.3560791 C-137.4145016 192.36169156 -139.15086461 193.36979428 -140.88720703 194.37792969 C-141.93376465 194.98282227 -142.98032227 195.58771484 -144.05859375 196.2109375 C-144.98986084 196.75024902 -145.92112793 197.28956055 -146.88061523 197.84521484 C-149 199 -149 199 -150 199 C-150.01458252 198.02651611 -150.02916504 197.05303223 -150.04418945 196.05004883 C-150.10233296 192.42484524 -150.17956377 188.8002524 -150.26245117 185.17553711 C-150.29562532 183.60923199 -150.32368058 182.04280949 -150.34643555 180.47631836 C-150.38012116 178.21938237 -150.43244049 175.96351474 -150.48828125 173.70703125 C-150.49467117 173.01100296 -150.5010611 172.31497467 -150.50764465 171.59785461 C-150.63787219 167.25363497 -151.33717633 164.45678304 -154 161 C-155.64605826 159.96642853 -157.30963442 158.95939668 -159 158 C-159 157.34 -159 156.68 -159 156 C-158.31897217 155.61666504 -157.63794434 155.23333008 -156.9362793 154.83837891 C-153.85267067 153.10179406 -150.77007527 151.36341842 -147.6875 149.625 C-146.61564453 149.02171875 -145.54378906 148.4184375 -144.43945312 147.796875 C-143.41142578 147.21679688 -142.38339844 146.63671875 -141.32421875 146.0390625 C-140.37635498 145.50490723 -139.42849121 144.97075195 -138.4519043 144.42041016 C-136.59555928 143.34501283 -134.78503321 142.19002214 -133 141 C-130.81035328 140.74666691 -130.81035328 140.74666691 -128.21333313 140.74171448 C-127.22790024 140.73488647 -126.24246735 140.72805847 -125.22717285 140.72102356 C-124.14713989 140.72357651 -123.06710693 140.72612946 -121.9543457 140.72875977 C-120.81583664 140.72353302 -119.67732758 140.71830627 -118.50431824 140.71292114 C-116.02763056 140.70266642 -113.55092124 140.69689818 -111.07421303 140.69503975 C-107.15249653 140.69138455 -103.23103484 140.67467953 -99.30937195 140.65428162 C-89.56455326 140.60510332 -79.81968644 140.57425877 -70.07476807 140.55297852 C-61.8496255 140.53498554 -53.62471313 140.50554416 -45.39967918 140.45893669 C-42.80222671 140.4472952 -40.20474212 140.44135642 -37.60726357 140.44125557 C-33.9688615 140.44106315 -30.33095234 140.42276739 -26.69262695 140.40063477 C-25.62271515 140.40521194 -24.55280334 140.40978912 -23.45046997 140.414505 C-17.05445767 140.35276849 -10.39815033 140.17132241 -5.44435596 135.54819584 C-1.97745178 131.50716096 -0.8772008 129.07383208 -0.84178162 123.8621521 C-0.8319928 122.7739769 -0.82220398 121.6858017 -0.81211853 120.56465149 C-0.80636307 119.36559677 -0.8006076 118.16654205 -0.79467773 116.93115234 C-0.78477814 115.67264969 -0.77487854 114.41414703 -0.76467896 113.11750793 C-0.73760233 109.66114546 -0.71660774 106.20476928 -0.69667697 102.7483592 C-0.67483439 99.13817304 -0.64743727 95.52802922 -0.62062073 91.9178772 C-0.57067042 85.07914366 -0.52574029 78.24038666 -0.48259836 71.40160716 C-0.43324594 63.61691678 -0.37832043 55.83226889 -0.32291877 48.04761958 C-0.20906283 32.0317841 -0.10296746 16.01590974 0 0 Z " fill="#3B7DB8" transform="translate(360,171)"/>
</svg>
